<svg width="39" height="40" viewBox="0 0 39 40" fill="none" xmlns="http://www.w3.org/2000/svg">
  <style>
    path { fill: #078080; }
    @media (prefers-color-scheme: dark) {
      path { fill: #7F5AF0; }
    }
  </style>
<path d="M30.5401 39.3C28.4201 39.3 26.5001 38.84 24.7801 37.92C23.0801 36.98 21.7401 35.69 20.7601 34.05C19.8001 32.41 19.3201 30.56 19.3201 28.5C19.3201 26.44 19.8101 24.59 20.7901 22.95C21.7701 21.31 23.1101 20.03 24.8101 19.11C26.5301 18.17 28.4501 17.7 30.5701 17.7C32.2901 17.7 33.8601 18 35.2801 18.6C36.7001 19.2 37.9001 20.07 38.8801 21.21L36.3601 23.58C34.8401 21.94 32.9701 21.12 30.7501 21.12C29.3101 21.12 28.0201 21.44 26.8801 22.08C25.7401 22.7 24.8501 23.57 24.2101 24.69C23.5701 25.81 23.2501 27.08 23.2501 28.5C23.2501 29.92 23.5701 31.19 24.2101 32.31C24.8501 33.43 25.7401 34.31 26.8801 34.95C28.0201 35.57 29.3101 35.88 30.7501 35.88C32.9701 35.88 34.8401 35.05 36.3601 33.39L38.8801 35.79C37.9001 36.93 36.6901 37.8 35.2501 38.4C33.8301 39 32.2601 39.3 30.5401 39.3Z" />
<path d="M0.820068 18H10.0001C12.2401 18 14.2301 18.44 15.9701 19.32C17.7101 20.18 19.0601 21.41 20.0201 23.01C20.9801 24.59 21.4601 26.42 21.4601 28.5C21.4601 30.58 20.9801 32.42 20.0201 34.02C19.0601 35.6 17.7101 36.83 15.9701 37.71C14.2301 38.57 12.2401 39 10.0001 39H0.820068V18ZM9.82007 35.7C11.3601 35.7 12.7101 35.41 13.8701 34.83C15.0501 34.23 15.9501 33.39 16.5701 32.31C17.2101 31.21 17.5301 29.94 17.5301 28.5C17.5301 27.06 17.2101 25.8 16.5701 24.72C15.9501 23.62 15.0501 22.78 13.8701 22.2C12.7101 21.6 11.3601 21.3 9.82007 21.3H4.72007V35.7H9.82007Z" />
<path d="M28.1101 21L28.0801 7.08L21.1801 18.6H19.4401L12.5401 7.26V21H8.82007V0H12.0301L20.3701 13.92L28.5601 0H31.7701L31.8001 21H28.1101Z" />
</svg>
